#N canvas 162 124 808 645 10;
#X obj 131 322 *~ 0.3;
#X obj 144 404 dac~;
#X obj 118 131 pack 0 0 0;
#X obj 117 96 poly 3 1;
#X obj 118 162 route 1 2 3;
#X obj 110 13 r notes;
#X obj 114 54 unpack 0 0;
#X obj 21 244 sample_audio_note;
#X obj 169 242 sample_audio_note;
#X obj 310 242 sample_audio_note;
#X connect 0 0 1 0;
#X connect 0 0 1 1;
#X connect 2 0 4 0;
#X connect 3 0 2 0;
#X connect 3 1 2 1;
#X connect 3 2 2 2;
#X connect 4 0 7 0;
#X connect 4 1 8 0;
#X connect 4 2 9 0;
#X connect 5 0 6 0;
#X connect 6 0 3 0;
#X connect 6 1 3 1;
#X connect 7 0 0 0;
#X connect 8 0 0 0;
#X connect 9 0 0 0;
