#N canvas 764 284 551 485 10;
#X obj 179 337 osc~ 440;
#X obj 140 283 +~;
#X obj 182 459 *~;
#X obj 255 301 / 127;
#X obj 258 389 line~;
#X obj 263 342 pack 0 200;
#X obj 108 212 osc~ 5;
#X obj 77 257 *~ 2;
#X obj 174 153 sig~, f 5;
#X obj 195 240 +~;
#X obj 206 78 mtof;
#X obj 206 51 unpack 0 0;
#X obj 185 11 inlet;
#X obj 178 494 outlet~;
#X connect 0 0 2 0;
#X connect 1 0 0 0;
#X connect 2 0 13 0;
#X connect 3 0 5 0;
#X connect 4 0 2 1;
#X connect 5 0 4 0;
#X connect 6 0 7 0;
#X connect 6 0 1 0;
#X connect 7 0 1 0;
#X connect 8 0 9 0;
#X connect 9 0 0 0;
#X connect 10 0 8 0;
#X connect 11 0 10 0;
#X connect 11 1 3 0;
#X connect 12 0 11 0;
